<?xml version="1.0" standalone="no"?>
<!DOCTYPE svg PUBLIC "-//W3C//DTD SVG 20010904//EN"
 "http://www.w3.org/TR/2001/REC-SVG-20010904/DTD/svg10.dtd">
<svg version="1.0" xmlns="http://www.w3.org/2000/svg"
 width="260.000000pt" height="260.000000pt" viewBox="0 0 260.000000 260.000000"
 preserveAspectRatio="xMidYMid meet">
<metadata>
Created by potrace 1.11, written by Peter Selinger 2001-2013
</metadata>
<g transform="translate(0.000000,260.000000) scale(0.100000,-0.100000)"
fill="#000000" stroke="none">
<path d="M0 1300 l0 -1300 1300 0 1300 0 0 1300 0 1300 -1300 0 -1300 0 0
-1300z m1542 541 l3 -380 45 56 c154 192 504 189 629 -5 55 -87 61 -132 61
-484 l0 -318 95 0 95 0 0 -70 0 -70 -275 0 -275 0 0 70 0 70 96 0 96 0 -4 308
-3 307 -26 56 c-44 93 -110 131 -224 131 -93 0 -159 -28 -220 -93 -87 -93 -90
-104 -93 -426 l-3 -282 93 -3 93 -3 3 -67 3 -68 -276 0 -276 0 3 68 3 67 93 3
92 3 0 684 0 684 -92 3 -93 3 -3 68 -3 67 180 0 181 0 2 -379z m-761 -196 c80
-17 184 -68 204 -99 13 -22 50 -245 41 -253 -3 -3 -34 -8 -70 -10 l-65 -6 -9
39 c-6 22 -15 62 -22 91 -11 49 -14 52 -63 74 -44 20 -69 24 -167 24 -109 0
-118 -2 -163 -28 -53 -31 -93 -86 -129 -177 -19 -48 -22 -74 -23 -200 0 -128
3 -152 23 -207 31 -81 79 -135 150 -170 48 -23 70 -28 137 -28 144 0 232 65
276 204 16 51 20 56 46 55 51 -3 113 -24 113 -40 0 -33 -41 -128 -84 -193 -53
-79 -122 -131 -205 -155 -80 -23 -242 -21 -322 4 -155 48 -264 172 -305 347
-22 95 -15 305 14 386 69 192 180 305 337 343 70 17 201 17 286 -1z"/>
</g>
</svg>
